<?xml version="1.0" encoding="UTF-8" standalone="no"?>
<!DOCTYPE svg PUBLIC "-//W3C//DTD SVG 1.1//EN" "http://www.w3.org/Graphics/SVG/1.1/DTD/svg11.dtd">
<svg xmlns="http://www.w3.org/2000/svg" xmlns:xl="http://www.w3.org/1999/xlink" version="1.1" viewBox="0 0 144 144" width="12pc" height="12pc" xmlns:dc="http://purl.org/dc/elements/1.1/">
  <metadata> Produced by OmniGraffle 7.2.2 
    <dc:date>2021-10-25 07:45:56 +0000</dc:date>
  </metadata>
  <defs/>
  <g stroke="none" stroke-opacity="1" stroke-dasharray="none" fill="none" fill-opacity="1">
    <title>Icons dark</title>
    <g>
      <title>144pt 192px SVG light</title>
      <path d="M 91.81491 53.521614 L 111.63587 4.460177 L 98.49586 4.460177 L 84.9381 36.164827 L 75.29567 4.460177 L 65.19519 4.460177 L 54.843753 36.164827 L 47.54307 21.7175 L 40.936594 42.032204 L 47.644063 53.522124 L 60.57596 53.522124 L 69.93071 25.090107 L 78.84986 53.522124 Z" fill="#66d1fb"/>
      <path d="M 91.81491 53.521614 L 111.63587 4.460177 L 98.49586 4.460177 L 84.9381 36.164827 L 75.29567 4.460177 L 65.19519 4.460177 L 54.843753 36.164827 L 47.54307 21.7175 L 40.936594 42.032204 L 47.644063 53.522124 L 60.57596 53.522124 L 69.93071 25.090107 L 78.84986 53.522124 Z" stroke="#66d1fb" stroke-linecap="round" stroke-linejoin="round" stroke-width="2"/>
      <path d="M 19.916458 36.67949 L 27.989394 36.67949 C 30.435198 36.67949 32.612702 36.4066 34.522418 35.860313 L 36.61066 29.424203 L 42.4459 11.436965 C 41.99758 10.727265 41.48794 10.058211 40.922822 9.437476 C 37.92767 6.119447 33.543587 4.460177 27.772103 4.460177 L 7.474231 4.460177 L 7.474231 53.521614 L 19.916458 53.521614 Z M 30.6025 15.747087 C 31.77312 16.925358 32.358175 18.502505 32.358175 20.47853 C 32.358175 22.469348 31.843 24.048026 30.814182 25.215075 C 29.6859 26.511682 27.60837 27.159986 24.581592 27.159986 L 19.916458 27.159986 L 19.916458 13.979682 L 24.616277 13.979682 C 27.436984 13.979682 29.432393 14.568817 30.60301 15.747087 Z M 103.58384 44.734575 L 107.35584 35.21507 L 118.24489 35.21507 L 113.07734 20.774884 L 119.54099 4.460177 L 138.0531 53.521614 L 124.40046 53.521614 L 121.2375 44.734575 Z" fill="white"/>
      <path d="M 94.42738 107.04425 L 94.42738 66.902655 L 117.3877 66.902655 L 117.3877 74.15044 L 101.99671 74.15044 L 101.99671 82.84779 L 115.62152 82.84779 L 115.62152 90.09558 L 101.99671 90.09558 L 101.99671 99.79646 L 117.3877 99.79646 L 117.3877 107.04425 Z" fill="#66d1fb"/>
      <path d="M 94.42738 107.04425 L 94.42738 66.902655 L 117.3877 66.902655 L 117.3877 74.15044 L 101.99671 74.15044 L 101.99671 82.84779 L 115.62152 82.84779 L 115.62152 90.09558 L 101.99671 90.09558 L 101.99671 99.79646 L 117.3877 99.79646 L 117.3877 107.04425 Z" stroke="#66d1fb" stroke-linecap="round" stroke-linejoin="round" stroke-width="2"/>
      <path d="M 85.49578 66.902655 L 85.49578 80.87788 L 68.21614 124.78584 L 68.21614 124.98407 L 72.69371 124.4885 L 86.18949 124.4885 L 86.18949 138.26549 L 57.810514 138.26549 L 57.810514 124.38938 L 75.02709 80.48142 L 75.02709 80.28319 L 70.42339 80.67965 L 58.31503 80.67965 L 58.31503 66.902655 Z" fill="white"/>
      <path d="M 85.49578 66.902655 L 85.49578 80.87788 L 68.21614 124.78584 L 68.21614 124.98407 L 72.69371 124.4885 L 86.18949 124.4885 L 86.18949 138.26549 L 57.810514 138.26549 L 57.810514 124.38938 L 75.02709 80.48142 L 75.02709 80.28319 L 70.42339 80.67965 L 58.31503 80.67965 L 58.31503 66.902655 Z" stroke="white" stroke-linecap="butt" stroke-linejoin="miter" stroke-width="5"/>
      <path d="M 26.864616 107.04425 L 26.864616 99.79646 L 34.43395 99.79646 L 34.43395 74.15044 L 26.864616 74.15044 L 26.864616 66.902655 L 49.57262 66.902655 L 49.57262 74.15044 L 42.003286 74.15044 L 42.003286 99.79646 L 49.57262 99.79646 L 49.57262 107.04425 Z" fill="#66d1fb"/>
      <path d="M 26.864616 107.04425 L 26.864616 99.79646 L 34.43395 99.79646 L 34.43395 74.15044 L 26.864616 74.15044 L 26.864616 66.902655 L 49.57262 66.902655 L 49.57262 74.15044 L 42.003286 74.15044 L 42.003286 99.79646 L 49.57262 99.79646 L 49.57262 107.04425 Z" stroke="#66d1fb" stroke-linecap="round" stroke-linejoin="round" stroke-width="2"/>
    </g>
  </g>
</svg>
