<?xml version="1.0" encoding="UTF-8" standalone="no"?>
<!DOCTYPE svg PUBLIC "-//W3C//DTD SVG 1.1//EN" "http://www.w3.org/Graphics/SVG/1.1/DTD/svg11.dtd">
<svg xmlns="http://www.w3.org/2000/svg" xmlns:xl="http://www.w3.org/1999/xlink" version="1.1" viewBox="0 0 96 96" width="8pc" height="8pc" xmlns:dc="http://purl.org/dc/elements/1.1/">
  <metadata> Produced by OmniGraffle 7.2.2 
    <dc:date>2020-09-03 10:05:19 +0000</dc:date>
  </metadata>
  <defs/>
  <g stroke="none" stroke-opacity="1" stroke-dasharray="none" fill="none" fill-opacity="1">
    <title>Icons</title>
    <g>
      <title>favicon 2</title>
      <circle cx="48" cy="48" r="48.000077" fill="#fc8c01"/>
      <path d="M 64.872715 16.797481 L 64.872715 29.018468 L 43.26933 67.4149 L 43.26933 67.58825 L 48.86729 67.15488 L 65.740004 67.15488 L 65.740004 79.20252 L 30.259996 79.20252 L 30.259996 67.068206 L 51.784534 28.671773 L 51.784534 28.498426 L 46.02889 28.84512 L 30.89075 28.84512 L 30.89075 16.797481 Z" fill="#616161"/>
      <path d="M 64.872715 16.797481 L 64.872715 29.018468 L 43.26933 67.4149 L 43.26933 67.58825 L 48.86729 67.15488 L 65.740004 67.15488 L 65.740004 79.20252 L 30.259996 79.20252 L 30.259996 67.068206 L 51.784534 28.671773 L 51.784534 28.498426 L 46.02889 28.84512 L 30.89075 28.84512 L 30.89075 16.797481 Z" stroke="black" stroke-linecap="butt" stroke-linejoin="miter" stroke-width="2"/>
    </g>
  </g>
</svg>
