<?xml version="1.0" encoding="UTF-8" standalone="no"?>
<!DOCTYPE svg PUBLIC "-//W3C//DTD SVG 1.1//EN" "http://www.w3.org/Graphics/SVG/1.1/DTD/svg11.dtd">
<svg xmlns="http://www.w3.org/2000/svg" xmlns:xl="http://www.w3.org/1999/xlink" version="1.1" viewBox="0 0 384 384" width="32pc" height="32pc" xmlns:dc="http://purl.org/dc/elements/1.1/">
  <metadata> Produced by OmniGraffle 7.2.2 
    <dc:date>2021-10-25 07:47:11 +0000</dc:date>
  </metadata>
  <defs/>
  <g stroke="none" stroke-opacity="1" stroke-dasharray="none" fill="none" fill-opacity="1">
    <title>Icons dark</title>
    <g>
      <title>384pt 512px SVG light</title>
      <path d="M 244.83977 142.7243 L 297.69564 11.893805 L 262.65562 11.893805 L 226.5016 96.43954 L 200.78845 11.893805 L 173.85384 11.893805 L 146.25001 96.43954 L 126.78152 57.91333 L 109.16425 112.08588 L 127.05084 142.72566 L 161.5359 142.72566 L 186.4819 66.90695 L 210.2663 142.72566 Z" fill="#66d1fb"/>
      <path d="M 244.83977 142.7243 L 297.69564 11.893805 L 262.65562 11.893805 L 226.5016 96.43954 L 200.78845 11.893805 L 173.85384 11.893805 L 146.25001 96.43954 L 126.78152 57.91333 L 109.16425 112.08588 L 127.05084 142.72566 L 161.5359 142.72566 L 186.4819 66.90695 L 210.2663 142.72566 Z" stroke="#66d1fb" stroke-linecap="round" stroke-linejoin="round" stroke-width="2"/>
      <path d="M 53.110555 97.81198 L 74.638385 97.81198 C 81.16053 97.81198 86.96721 97.08427 92.05978 95.6275 L 97.62843 78.46454 L 113.18907 30.498573 C 111.99355 28.60604 110.6345 26.821895 109.12753 25.166603 C 101.14045 16.318524 89.44956 11.893805 74.05894 11.893805 L 19.931282 11.893805 L 19.931282 142.7243 L 53.110555 142.7243 Z M 81.60667 41.992233 C 84.72832 45.134287 86.28847 49.340014 86.28847 54.609415 C 86.28847 59.91826 84.91467 64.12807 82.17115 67.2402 C 79.1624 70.69782 73.62232 72.42663 65.55091 72.42663 L 53.110555 72.42663 L 53.110555 37.27915 L 65.643405 37.27915 C 73.16529 37.27915 78.48638 38.85018 81.60803 41.992233 Z M 276.22358 119.2922 L 286.28224 93.90685 L 315.3197 93.90685 L 301.53956 55.39969 L 318.77597 11.893805 L 368.1416 142.7243 L 331.73456 142.7243 L 323.3 119.2922 Z" fill="white"/>
      <path d="M 251.80634 285.45133 L 251.80634 178.40708 L 313.03385 178.40708 L 313.03385 197.73451 L 271.99124 197.73451 L 271.99124 220.92743 L 308.32404 220.92743 L 308.32404 240.25487 L 271.99124 240.25487 L 271.99124 266.1239 L 313.03385 266.1239 L 313.03385 285.45133 Z" fill="#66d1fb"/>
      <path d="M 251.80634 285.45133 L 251.80634 178.40708 L 313.03385 178.40708 L 313.03385 197.73451 L 271.99124 197.73451 L 271.99124 220.92743 L 308.32404 220.92743 L 308.32404 240.25487 L 271.99124 240.25487 L 271.99124 266.1239 L 313.03385 266.1239 L 313.03385 285.45133 Z" stroke="#66d1fb" stroke-linecap="round" stroke-linejoin="round" stroke-width="2"/>
      <path d="M 227.98874 178.40708 L 227.98874 215.67434 L 181.9097 332.76224 L 181.9097 333.29086 L 193.8499 331.96932 L 229.83863 331.96932 L 229.83863 368.70796 L 154.16137 368.70796 L 154.16137 331.705 L 200.07224 214.6171 L 200.07224 214.0885 L 187.7957 215.14572 L 155.50674 215.14572 L 155.50674 178.40708 Z" fill="white"/>
      <path d="M 227.98874 178.40708 L 227.98874 215.67434 L 181.9097 332.76224 L 181.9097 333.29086 L 193.8499 331.96932 L 229.83863 331.96932 L 229.83863 368.70796 L 154.16137 368.70796 L 154.16137 331.705 L 200.07224 214.6171 L 200.07224 214.0885 L 187.7957 215.14572 L 155.50674 215.14572 L 155.50674 178.40708 Z" stroke="white" stroke-linecap="butt" stroke-linejoin="miter" stroke-width="5"/>
      <path d="M 71.63898 285.45133 L 71.63898 266.1239 L 91.82387 266.1239 L 91.82387 197.73451 L 71.63898 197.73451 L 71.63898 178.40708 L 132.19366 178.40708 L 132.19366 197.73451 L 112.00876 197.73451 L 112.00876 266.1239 L 132.19366 266.1239 L 132.19366 285.45133 Z" fill="#66d1fb"/>
      <path d="M 71.63898 285.45133 L 71.63898 266.1239 L 91.82387 266.1239 L 91.82387 197.73451 L 71.63898 197.73451 L 71.63898 178.40708 L 132.19366 178.40708 L 132.19366 197.73451 L 112.00876 197.73451 L 112.00876 266.1239 L 132.19366 266.1239 L 132.19366 285.45133 Z" stroke="#66d1fb" stroke-linecap="round" stroke-linejoin="round" stroke-width="2"/>
    </g>
  </g>
</svg>
