<?xml version="1.0" encoding="UTF-8" standalone="no"?>
<!DOCTYPE svg PUBLIC "-//W3C//DTD SVG 1.1//EN" "http://www.w3.org/Graphics/SVG/1.1/DTD/svg11.dtd">
<svg xmlns="http://www.w3.org/2000/svg" xmlns:xl="http://www.w3.org/1999/xlink" version="1.1" viewBox="0 -3 257 88" width="257pt" height="88pt" xmlns:dc="http://purl.org/dc/elements/1.1/">
  <metadata> Produced by OmniGraffle 7.2.2 
    <dc:date>2021-10-21 09:13:57 +0000</dc:date>
  </metadata>
  <defs/>
  <g stroke="none" stroke-opacity="1" stroke-dasharray="none" fill="none" fill-opacity="1">
    <title>Site logo</title>
    <g>
      <title>horizontal dark</title>
      <path d="M 97.65276 81.99941 L 120.60219 25.625 L 105.3882 25.625 L 89.69053 62.05547 L 78.52617 25.625 L 66.83146 25.625 L 54.846184 62.05547 L 46.39318 45.454657 L 38.74396 68.79742 L 46.510117 82 L 61.48315 82 L 72.31442 49.329977 L 82.64134 82 Z" fill="#66d1fb"/>
      <path d="M 14.40607 62.646846 L 23.753215 62.646846 C 26.585056 62.646846 29.10625 62.33328 31.31739 61.70556 L 33.735234 54.3101 L 40.491494 33.64173 C 39.97241 32.826245 39.382327 32.057463 38.728016 31.344203 C 35.260117 27.531596 30.184064 25.625 23.501627 25.625 L 0 25.625 L 0 81.99941 L 14.40607 81.99941 Z M 26.778767 38.59431 C 28.134153 39.94821 28.81155 41.760443 28.81155 44.03101 C 28.81155 46.318574 28.215063 48.132566 27.02386 49.47357 C 25.71749 50.96345 23.31205 51.708387 19.807535 51.708387 L 14.40607 51.708387 L 14.40607 36.56346 L 19.847695 36.56346 C 23.113614 36.56346 25.42397 37.24041 26.779358 38.59431 Z M 111.27926 71.9026 L 115.64662 60.96414 L 128.25437 60.96414 L 122.27118 44.371537 L 129.75504 25.625 L 151.18903 81.99941 L 135.38151 81.99941 L 131.71931 71.9026 Z" fill="#FFFFFF"/>
      <path d="M 229.4157 46.125 L 229.4157 4973799e-20 L 256 4973799e-20 L 256 8.328125 L 238.17975 8.328125 L 238.17975 18.321875 L 253.95505 18.321875 L 253.95505 26.65 L 238.17975 26.65 L 238.17975 37.796875 L 256 37.796875 L 256 46.125 Z" fill="#66d1fb"/>
      <path d="M 229.4157 46.125 L 229.4157 4973799e-20 L 256 4973799e-20 L 256 8.328125 L 238.17975 8.328125 L 238.17975 18.321875 L 253.95505 18.321875 L 253.95505 26.65 L 238.17975 26.65 L 238.17975 37.796875 L 256 37.796875 L 256 46.125 Z" stroke="#66d1fb" stroke-linecap="round" stroke-linejoin="round" stroke-width="2"/>
      <path d="M 219.07436 0 L 219.07436 16.058333 L 199.06735 66.51111 L 199.06735 66.73889 L 204.25165 66.169444 L 219.87756 66.169444 L 219.87756 82 L 187.01934 82 L 187.01934 66.055556 L 206.95333 15.602778 L 206.95333 15.375 L 201.623 15.830556 L 187.60348 15.830556 L 187.60348 0 Z" fill="#FFFFFF"/>
      <path d="M 219.07436 0 L 219.07436 16.058333 L 199.06735 66.51111 L 199.06735 66.73889 L 204.25165 66.169444 L 219.87756 66.169444 L 219.87756 82 L 187.01934 82 L 187.01934 66.055556 L 206.95333 15.602778 L 206.95333 15.375 L 201.623 15.830556 L 187.60348 15.830556 L 187.60348 0 Z" stroke="#FFFFFF" stroke-linecap="butt" stroke-linejoin="miter" stroke-width="5"/>
      <path d="M 151.18903 46.125 L 151.18903 37.796875 L 159.95309 37.796875 L 159.95309 8.328125 L 151.18903 8.328125 L 151.18903 4973799e-20 L 177.4812 4973799e-20 L 177.4812 8.328125 L 168.71715 8.328125 L 168.71715 37.796875 L 177.4812 37.796875 L 177.4812 46.125 Z" fill="#66d1fb"/>
      <path d="M 151.18903 46.125 L 151.18903 37.796875 L 159.95309 37.796875 L 159.95309 8.328125 L 151.18903 8.328125 L 151.18903 4973799e-20 L 177.4812 4973799e-20 L 177.4812 8.328125 L 168.71715 8.328125 L 168.71715 37.796875 L 177.4812 37.796875 L 177.4812 46.125 Z" stroke="#66d1fb" stroke-linecap="round" stroke-linejoin="round" stroke-width="2"/>
    </g>
  </g>
</svg>
